<?xml version="1.0" encoding="UTF-8"?><svg id="uuid-8471f911-9554-4c63-af64-18ea71bbbf96" xmlns="http://www.w3.org/2000/svg" xmlns:xlink="http://www.w3.org/1999/xlink" viewBox="0 0 395.38 484.44"><defs><linearGradient id="uuid-3c004efd-c006-403e-a81a-0caa1eccd378" x1="-204.21" y1="310.08" x2="180" y2="310.08" gradientTransform="translate(209.36 94.35)" gradientUnits="userSpaceOnUse"><stop offset="0" stop-color="#706f6f"/><stop offset="1" stop-color="#a4a4a5"/></linearGradient><linearGradient id="uuid-281986c4-1e6a-4820-9e31-086d1a9d4a35" x1="-205.86" y1="342.86" x2="-12.51" y2="342.86" xlink:href="#uuid-3c004efd-c006-403e-a81a-0caa1eccd378"/><linearGradient id="uuid-c453f200-5549-4bc0-ae30-c3b115ee6e14" x1="-12.58" y1="342.83" x2="181.64" y2="342.83" xlink:href="#uuid-3c004efd-c006-403e-a81a-0caa1eccd378"/><linearGradient id="uuid-39330b21-299b-43c4-9fa9-4f74f2f06c26" x1="-203.33" y1="234.83" x2="180.88" y2="234.83" xlink:href="#uuid-3c004efd-c006-403e-a81a-0caa1eccd378"/><linearGradient id="uuid-da009bbe-cfc9-4aff-bfa4-c9724e972c38" x1="-204.98" y1="263.85" x2="-10.94" y2="263.85" xlink:href="#uuid-3c004efd-c006-403e-a81a-0caa1eccd378"/><linearGradient id="uuid-2e40f37e-c53e-42a5-9112-4677159a075f" x1="-10.91" y1="262.83" x2="182.52" y2="262.83" xlink:href="#uuid-3c004efd-c006-403e-a81a-0caa1eccd378"/></defs><path d="m385.13,441.43c1.53-.32,1.5-.72-.05-.88l-184.21-19.35c-1.55-.16-4.09-.16-5.64,0l-185.19,19.52c-1.55.16-1.57.56-.05.89l184.4,39.11c1.53.32,4.02.32,5.55,0l185.18-39.27Z" style="fill:#706f6f; stroke-width:0px;"/><path d="m385.13,441.43c1.53-.32,1.5-.72-.05-.88l-184.21-19.35c-1.55-.16-4.09-.16-5.64,0l-185.19,19.52c-1.55.16-1.57.56-.05.89l184.4,39.11c1.53.32,4.02.32,5.55,0l185.18-39.27Z" style="fill:none; stroke:#706f6f; stroke-miterlimit:10; stroke-width:7px;"/><path d="m388.23,394.5c1.53-.32,1.5-.71-.05-.87l-187.25-19.02c-1.55-.16-4.09-.16-5.64,0L6.32,393.69c-1.55.16-1.57.55-.05.87l188.17,39.57c1.53.32,4.02.32,5.55,0l188.23-39.63Z" style="fill:url(#uuid-3c004efd-c006-403e-a81a-0caa1eccd378); stroke-width:0px;"/><path d="m388.23,394.5c1.53-.32,1.5-.71-.05-.87l-187.25-19.02c-1.55-.16-4.09-.16-5.64,0L6.32,393.69c-1.55.16-1.57.55-.05.87l188.17,39.57c1.53.32,4.02.32,5.55,0l188.23-39.63Z" style="fill:none; stroke:#706f6f; stroke-miterlimit:10; stroke-width:7px;"/><path d="m196.85,478.45c0,1.56-1.24,2.57-2.77,2.26L6.28,441.59c-1.53-.32-2.78-1.85-2.78-3.41v-42.08c0-1.56,1.26-2.64,2.8-2.41l187.67,28.29c1.54.23,2.8,1.7,2.81,3.26l.07,53.22Z" style="fill:url(#uuid-281986c4-1e6a-4820-9e31-086d1a9d4a35); stroke-width:0px;"/><path d="m196.85,478.45c0,1.56-1.24,2.57-2.77,2.26L6.28,441.59c-1.53-.32-2.78-1.85-2.78-3.41v-42.08c0-1.56,1.26-2.64,2.8-2.41l187.67,28.29c1.54.23,2.8,1.7,2.81,3.26l.07,53.22Z" style="fill:none; stroke:#706f6f; stroke-miterlimit:10; stroke-width:7px;"/><path d="m391,438.01c0,1.56-1.25,3.09-2.78,3.41l-188.6,39.29c-1.53.32-2.78-.7-2.78-2.26l-.07-53.22c0-1.56,1.26-3.02,2.8-3.26l188.62-28.36c1.54-.23,2.8.85,2.8,2.41v41.98Z" style="fill:url(#uuid-c453f200-5549-4bc0-ae30-c3b115ee6e14); stroke-width:0px;"/><path d="m391,438.01c0,1.56-1.25,3.09-2.78,3.41l-188.6,39.29c-1.53.32-2.78-.7-2.78-2.26l-.07-53.22c0-1.56,1.26-3.02,2.8-3.26l188.62-28.36c1.54-.23,2.8.85,2.8,2.41v41.98Z" style="fill:none; stroke:#706f6f; stroke-miterlimit:10; stroke-width:7px;"/><path d="m385.99,366.08c1.54-.26,1.52-.61-.03-.78l-184.21-19.35c-1.55-.16-4.09-.16-5.64,0l-185.19,19.52c-1.55.16-1.56.51-.03.78l184.12,31.73c1.54.26,4.05.27,5.59,0l185.38-31.9Z" style="fill:#706f6f; stroke-width:0px;"/><path d="m385.99,366.08c1.54-.26,1.52-.61-.03-.78l-184.21-19.35c-1.55-.16-4.09-.16-5.64,0l-185.19,19.52c-1.55.16-1.56.51-.03.78l184.12,31.73c1.54.26,4.05.27,5.59,0l185.38-31.9Z" style="fill:none; stroke:#706f6f; stroke-miterlimit:10; stroke-width:7px;"/><path d="m389.1,319.25c1.53-.32,1.5-.71-.05-.87l-187.25-19.02c-1.55-.16-4.09-.16-5.64,0L7.2,318.44c-1.55.16-1.57.55-.05.87l188.17,39.57c1.53.32,4.02.32,5.55,0l188.23-39.63Z" style="fill:url(#uuid-39330b21-299b-43c4-9fa9-4f74f2f06c26); stroke-width:0px;"/><path d="m389.1,319.25c1.53-.32,1.5-.71-.05-.87l-187.25-19.02c-1.55-.16-4.09-.16-5.64,0L7.2,318.44c-1.55.16-1.57.55-.05.87l188.17,39.57c1.53.32,4.02.32,5.55,0l188.23-39.63Z" style="fill:none; stroke:#706f6f; stroke-miterlimit:10; stroke-width:7px;"/><path d="m197.85,395.63c-.02,1.56-1.29,2.62-2.83,2.36L7.17,366.24c-1.54-.26-2.79-1.75-2.79-3.31v-42.08c0-1.56,1.26-2.67,2.81-2.46l188.45,24.9c1.55.2,2.8,1.65,2.78,3.21l-.56,49.13Z" style="fill:url(#uuid-da009bbe-cfc9-4aff-bfa4-c9724e972c38); stroke-width:0px;"/><path d="m197.85,395.63c-.02,1.56-1.29,2.62-2.83,2.36L7.17,366.24c-1.54-.26-2.79-1.75-2.79-3.31v-42.08c0-1.56,1.26-2.67,2.81-2.46l188.45,24.9c1.55.2,2.8,1.65,2.78,3.21l-.56,49.13Z" style="fill:none; stroke:#706f6f; stroke-miterlimit:10; stroke-width:7px;"/><path d="m391.88,362.76c0,1.56-1.26,3.04-2.8,3.28l-187.83,29.97c-1.54.25-2.8-.83-2.8-2.39v-47.13c0-1.56,1.26-3,2.81-3.21l187.81-24.96c1.55-.21,2.81.9,2.81,2.46v41.98Z" style="fill:url(#uuid-2e40f37e-c53e-42a5-9112-4677159a075f); stroke-width:0px;"/><path d="m391.88,362.76c0,1.56-1.26,3.04-2.8,3.28l-187.83,29.97c-1.54.25-2.8-.83-2.8-2.39v-47.13c0-1.56,1.26-3,2.81-3.21l187.81-24.96c1.55-.21,2.81.9,2.81,2.46v41.98Z" style="fill:none; stroke:#706f6f; stroke-miterlimit:10; stroke-width:7px;"/><circle cx="197.81" cy="164.91" r="160.91" style="fill:#78171a; stroke-width:0px;"/><circle cx="197.81" cy="164.91" r="160.91" style="fill:none; stroke:#4f1e21; stroke-miterlimit:10; stroke-width:8px;"/><text transform="translate(80.48 227.75)" style="fill:#fff; font-family:OpenSans-Bold, &apos;Open Sans&apos;; font-size:230px; font-weight:700;"><tspan x="0" y="0">cs</tspan></text></svg>