<?xml version="1.0" encoding="UTF-8"?><svg id="uuid-58fa61a1-30cc-401e-9622-6db15b59eb5e" xmlns="http://www.w3.org/2000/svg" xmlns:xlink="http://www.w3.org/1999/xlink" viewBox="0 0 410.02 466.16"><defs><radialGradient id="uuid-5863ada4-c867-4a7e-9d8e-8948b94b8499" cx="187.59" cy="302.69" fx="187.59" fy="302.69" r="170.66" gradientTransform="translate(32.82) scale(.92 1)" gradientUnits="userSpaceOnUse"><stop offset="0" stop-color="#dbae8a"/><stop offset="1" stop-color="#a4907a"/></radialGradient><linearGradient id="uuid-67149669-d0d2-4bf1-9cae-d2d7ee2cdf37" x1="204.18" y1="350.28" x2="405.02" y2="350.28" gradientUnits="userSpaceOnUse"><stop offset="0" stop-color="#dabd9f"/><stop offset=".35" stop-color="#d6ba9c"/><stop offset=".65" stop-color="#cbb195"/><stop offset=".94" stop-color="#b9a288"/><stop offset="1" stop-color="#b59e85"/></linearGradient><linearGradient id="uuid-b7fe59cf-a538-49d6-a2cd-4bf0846f105a" x1="5" y1="350.15" x2="205.28" y2="350.15" gradientUnits="userSpaceOnUse"><stop offset="0" stop-color="#b59e85"/><stop offset=".12" stop-color="#c4aa8f"/><stop offset=".28" stop-color="#d0b598"/><stop offset=".5" stop-color="#d7bb9d"/><stop offset="1" stop-color="#dabd9f"/></linearGradient></defs><path d="m404.33,400.05c-133.11,2.1-266.22,4.2-399.33,6.29.08-55.9.15-111.79.23-167.69,65.87-13.21,131.73-26.42,197.6-39.62,67.17,13.3,134.33,26.61,201.5,39.91v161.1Z" style="fill:url(#uuid-5863ada4-c867-4a7e-9d8e-8948b94b8499); stroke:#ae9781; stroke-linecap:round; stroke-linejoin:round; stroke-width:10px;"/><path d="m405.04,402.7c-64.31-21.13-128.61-42.26-192.92-63.38-69.04,21.34-138.08,42.68-207.12,64.02,66.77,18.66,133.54,37.32,200.31,55.98,66.57-18.87,133.15-37.74,199.72-56.62Z" style="fill:#dbae8a; opacity:.52; stroke-width:0px;"/><circle cx="204.16" cy="165.68" r="161.68" style="fill:#78171a; stroke-width:0px;"/><circle cx="204.16" cy="165.68" r="161.68" style="fill:none; stroke:#4f1e21; stroke-miterlimit:10; stroke-width:8px;"/><text transform="translate(96.29 235.2)" style="fill:#fff; font-family:OpenSans-Bold, &apos;Open Sans&apos;; font-size:230px; font-weight:700;"><tspan x="0" y="0">id</tspan></text><path d="m207.49,263.76c64.2-8.09,128.4-16.19,192.6-24.28,2.25-.28,4.25,1.47,4.26,3.74l.67,159.61c0,1.7-1.12,3.19-2.75,3.66-64.06,18.16-128.11,36.32-192.17,54.48-2.41.68-4.8-1.12-4.82-3.62-.37-63.27-.73-126.53-1.1-189.8-.01-1.92,1.41-3.54,3.31-3.78Z" style="fill:url(#uuid-67149669-d0d2-4bf1-9cae-d2d7ee2cdf37); stroke:#ad9780; stroke-linecap:round; stroke-linejoin:round; stroke-width:10px;"/><path d="m9.32,239.18c63.9,8.2,127.79,16.4,191.69,24.6,1.81.23,3.16,1.76,3.17,3.58.37,63.38.73,126.76,1.1,190.14.01,2.41-2.29,4.17-4.61,3.52-64.34-17.98-128.67-35.96-193.01-53.94-1.57-.44-2.66-1.87-2.66-3.51.07-53.6.15-107.2.22-160.8,0-2.19,1.93-3.88,4.1-3.6Z" style="fill:url(#uuid-b7fe59cf-a538-49d6-a2cd-4bf0846f105a); stroke:#ae9781; stroke-linecap:round; stroke-linejoin:round; stroke-width:10px;"/></svg>